<?xml version="1.0" encoding="utf-8"?>
<!-- Generator: Adobe Illustrator 26.2.1, SVG Export Plug-In . SVG Version: 6.00 Build 0)  -->
<svg version="1.1" id="Layer_1" xmlns="http://www.w3.org/2000/svg" xmlns:xlink="http://www.w3.org/1999/xlink" x="0px" y="0px"
	 viewBox="0 0 170.2 59.5" style="enable-background:new 0 0 170.2 59.5;" xml:space="preserve">
<style type="text/css">
	.st0{fill:none;}
	.st1{fill:#363944;}
	.st2{fill:#ff0;}
</style>
<g id="tlas">
	<path class="st0" d="M156.8,54.2c0,0.2,0.1,0.3,0.1,0.4s0.2,0.1,0.4,0.1s0.3,0,0.4-0.1s0.2-0.2,0.2-0.4V52h-1.1L156.8,54.2z"/>
	<path class="st1" d="M167,49.9h2.9v-1.7c0-0.7-0.4-1.4-1.1-1.7c-1.7-0.6-3.5-0.6-5.2,0c-0.7,0.3-1.1,1-1.1,1.7v3.7h4.2v2.4
		c0,0.2-0.1,0.3-0.1,0.4s-0.2,0.1-0.4,0.1s-0.3,0-0.4-0.1s-0.1-0.2-0.1-0.4v-2h-3.2v1.8c0,0.7,0.4,1.4,1.1,1.7
		c1.7,0.6,3.5,0.6,5.2,0c0.7-0.3,1.1-1,1.1-1.7v-3.6h-4.2v-2.4c0-0.2,0.1-0.3,0.1-0.4s0.2-0.1,0.4-0.1s0.3,0,0.4,0.1
		s0.1,0.2,0.1,0.4v1.8H167z"/>
	<polygon class="st2" points="166.7,49.9 166.6,49.9 166.6,50.4 170.2,50.4 170.2,49.9 170.2,49.9 169.9,49.9 167,49.9 	"/>
	<polygon class="st2" points="165.9,52.4 165.9,51.9 165.6,51.9 162.4,51.9 162.3,51.9 162.3,52.4 162.5,52.4 165.7,52.4 	"/>
	<path class="st1" d="M161.1,53.8v-5.6c0-0.7-0.4-1.3-1.1-1.6c-1.7-0.5-3.5-0.5-5.2,0c-0.6,0.3-1.1,0.9-1.1,1.6v1.9h3.2v-2
		c0-0.2,0-0.3,0.1-0.4s0.2-0.1,0.4-0.1s0.4,0,0.4,0.1s0.1,0.2,0.1,0.4v2.3h-4.2v3.7c-0.1,0.7,0.4,1.4,1.1,1.6
		c0.8,0.3,1.7,0.5,2.6,0.4c0.3,0,0.7,0,1-0.1c1.7-0.2,0.9,0.1,1.4,0.1h2.2v-2.3L161.1,53.8L161.1,53.8z M157.9,54.2
		c0,0.2,0,0.3-0.2,0.4s-0.2,0.1-0.4,0.1s-0.4,0-0.4-0.1s-0.1-0.2-0.1-0.4V52h1.1L157.9,54.2z"/>
	<rect x="149.7" y="44" class="st1" width="3.1" height="12"/>
	<path class="st1" d="M147.8,54.3c-0.3-0.1-0.4-0.3-0.4-0.6v-5.9h1.7v-1.5h-1.7v-2h-3.2v2h-1.4v1.5h1.4v6c-0.1,0.7,0.1,1.4,0.5,1.9
		c0.3,0.3,1.1,0.4,2.5,0.4h2v-1.7h-0.6C148.3,54.4,148.1,54.4,147.8,54.3z"/>
</g>
<g id="a">
	<path class="st1" d="M143.2,56.1h-5.6l-1-5.3H134l-1,5.3h-5.6l4.3-19.9h7.3C138.8,36.2,143.2,56.1,143.2,56.1z M136,48l-0.8-6
		l-0.8,6H136z"/>
</g>
<path class="st0" d="M47.3,32.5c0-2-1.6-3.6-3.6-3.6c0,0,0,0,0,0h-7.2v7.2h7.2C45.7,36.1,47.3,34.5,47.3,32.5
	C47.3,32.5,47.3,32.5,47.3,32.5z"/>
<path class="st0" d="M43.7,43.3h-7.2v7.2h7.2c2,0,3.6-1.6,3.6-3.6C47.3,44.9,45.7,43.3,43.7,43.3z"/>
<path class="st1" d="M56.2,39.5c4-4.2,3.8-10.8-0.4-14.7c-1.9-1.8-4.5-2.9-7.2-2.9H27.2v27.5c-11-0.7-19.5-9.8-19.5-20.8
	C7.9,17.1,17.1,7.9,28.6,7.7c7.5,0,14.3,4,18.1,10.4h2.8c2.1,0,4.3,0.5,6.2,1.4c-5-15-21.2-23-36.2-18C7.8,5.4,0,16.3,0,28.6
	c-0.2,15.3,11.9,27.9,27.2,28.5h21.5c5.8,0,10.4-4.7,10.4-10.4C59,44,58,41.4,56.2,39.5z M38.2,28.7h7.2c2,0,3.6,1.6,3.6,3.6
	c0,2-1.6,3.6-3.6,3.6h-7.2V28.7z M45.5,50.3h-7.2v-7.2h7.2c2,0,3.6,1.6,3.6,3.6C49.1,48.7,47.4,50.3,45.5,50.3z"/>
<g id="c">
	<path class="st1" d="M109.4,52.8c0,1.5-0.9,2.9-2.3,3.4c-1.3,0.7-3,0.9-5.6,0.9s-4.3-0.2-5.6-0.9c-1.4-0.5-2.3-1.9-2.3-3.4V40.4
		c0-1.5,0.9-2.9,2.3-3.4c1.8-0.8,3.7-1.1,5.6-1.1c1.8-0.1,3.6,0.2,5.3,0.8c1.5,0.5,2.4,1.9,2.4,3.4v4.9h-6.6V40
		c0-0.4-0.2-0.6-0.2-0.9s-0.4-0.2-0.9-0.2s-0.6,0-0.8,0.2c-0.3,0.2-0.4,0.5-0.4,0.9v12.8c0,0.4,0.2,0.7,0.2,0.9s0.4,0.2,0.9,0.2
		s0.6,0,0.8-0.2s0.2-0.4,0.2-0.9v-4.9h6.8C109.2,47.9,109.4,52.8,109.4,52.8z"/>
</g>
<g id="rain">
	<path class="st0" d="M71.8,54.3c0,0.2,0.1,0.3,0.1,0.4s0.2,0.1,0.4,0.1s0.3,0,0.4-0.1s0.2-0.2,0.2-0.4v-2.4h-1.2V54.3z"/>
	<path class="st1" d="M77.3,53.6v-6.2c0-0.8-0.5-1.5-1.2-1.8c-0.9-0.4-1.9-0.5-2.9-0.4c-1-0.1-1.9,0.1-2.9,0.4
		c-0.7,0.3-1.2,1-1.2,1.8v2.1h3.5v-2.2c0-0.2,0-0.3,0.1-0.4s0.2-0.1,0.4-0.1s0.4,0,0.4,0.1s0.1,0.2,0.1,0.4v2.5h-4.6v4.1
		c-0.1,0.8,0.4,1.6,1.2,1.8c0.9,0.4,1.9,0.5,2.9,0.4c0.4,0,0.7,0,1.1-0.1c1.8-0.3,1,0.1,1.6,0.1h2.4v-2.5L77.3,53.6L77.3,53.6z
		 M73.8,54c0,0.2,0,0.3-0.2,0.4s-0.2,0.1-0.4,0.1s-0.4,0-0.4-0.1s-0.1-0.2-0.1-0.4v-2.4h1.2L73.8,54z"/>
	<path class="st1" d="M67.9,45.8c-0.5-0.3-1.1-0.5-1.8-0.4c-0.4,0-0.9,0-1.3,0.1c-0.3,0.1-0.6,0.2-0.9,0.3v-0.4h-3.5v10.8H64v-8.7
		c0-0.1,0-0.2,0.1-0.3c0.1-0.1,0.2-0.1,0.4-0.1c0.3,0,0.5,0.2,0.6,0.5c0,0,0,0,0,0.1v2.3h3.5c0-1,0-2,0.1-3
		C68.7,46.5,68.4,46.1,67.9,45.8z"/>
	<rect x="79.2" y="49.2" class="st1" width="3.5" height="7"/>
	<path class="st1" d="M82.7,45.4h-3.6v2.5h3.6v-2l0,0v-0.3l0,0V45.4z"/>
	<path class="st1" d="M91.2,46c-0.5-0.3-1.1-0.5-1.8-0.4c-0.4,0-0.9,0-1.3,0.1c-0.3,0.1-0.6,0.2-0.9,0.3v-0.5h-3.5v10.8h3.5v-8.6
		c0-0.1,0-0.2,0.1-0.3c0.1-0.1,0.2-0.1,0.4-0.1c0.3,0,0.5,0.2,0.6,0.5c0,0,0,0,0,0.1v8.6h3.5l0.1-9.2C92,46.7,91.6,46.3,91.2,46z"/>
</g>
<g id="ell">
	<path class="st0" d="M113.5,48.1c-0.2,0-0.3,0-0.4,0.1c-0.1,0.1-0.2,0.2-0.2,0.4v2.2h1.1v-2.2c0-0.2-0.1-0.3-0.1-0.4
		S113.7,48.1,113.5,48.1z"/>
	<path class="st1" d="M116.7,46.9c-0.8-0.3-1.7-0.5-2.6-0.4c-0.9,0-1.8,0.1-2.6,0.5c-0.7,0.3-1.1,0.9-1.1,1.6v5.8
		c0,0.7,0.4,1.3,1.1,1.6c1.7,0.5,3.5,0.5,5.2,0c0.6-0.3,1.1-0.9,1.1-1.6v-1.9h-3.2v2c0,0.2,0,0.3-0.1,0.4s-0.2,0.1-0.4,0.1
		s-0.4,0-0.4-0.1s-0.1-0.2-0.1-0.4v-2.3h4.2v-3.7C117.9,47.8,117.4,47.1,116.7,46.9z M114.7,50.6h-1.1v-2.2c0-0.2,0.1-0.3,0.2-0.4
		c0.1-0.1,0.2-0.1,0.4-0.1s0.4,0,0.4,0.1s0.1,0.2,0.1,0.4V50.6z"/>
	<rect x="118.8" y="44.3" class="st1" width="3.2" height="12"/>
	<rect x="122.8" y="44.3" class="st1" width="3.2" height="12"/>
</g>
</svg>
